HIERARCHY
ROOT joint_Root
{
	OFFSET 0.0 0.0 0.0
	CHANNELS 6 Xposition Yposition Zposition Zrotation Xrotation Yrotation 
	JOINT Hips
	{
		OFFSET -17.1583 93.1646 452.98
		CHANNELS 6 Xposition Yposition Zposition Zrotation Xrotation Yrotation 
		JOINT Spine
		{
			OFFSET 15.7357 0.0 0.0
			CHANNELS 6 Xposition Yposition Zposition Zrotation Xrotation Yrotation 
			JOINT Chest
			{
				OFFSET 8.98455 -0.406207 0.0
				CHANNELS 6 Xposition Yposition Zposition Zrotation Xrotation Yrotation 
				JOINT Neck
				{
					OFFSET 16.3773 0.0 0.0
					CHANNELS 6 Xposition Yposition Zposition Zrotation Xrotation Yrotation 
					JOINT Head
					{
						OFFSET 6.45672 0.0 0.0
						CHANNELS 6 Xposition Yposition Zposition Zrotation Xrotation Yrotation 
						End Site
						{
							OFFSET 0.0 0.0 0.0
						}
					}
				}
				JOINT Shoulder_L
				{
					OFFSET 12.9942 -0.242716 4.98039
					CHANNELS 6 Xposition Yposition Zposition Zrotation Xrotation Yrotation 
					JOINT UpperArm_L
					{
						OFFSET 5.34809 0.0 0.0
						CHANNELS 6 Xposition Yposition Zposition Zrotation Xrotation Yrotation 
						JOINT LowerArm_L
						{
							OFFSET 24.3286 1.87007e-05 0.0
							CHANNELS 6 Xposition Yposition Zposition Zrotation Xrotation Yrotation 
							JOINT Hand_L
							{
								OFFSET 22.2916 0.0 0.0
								CHANNELS 6 Xposition Yposition Zposition Zrotation Xrotation Yrotation 
								End Site
								{
									OFFSET 0.0 0.0 0.0
								}
							}
						}
					}
				}
				JOINT Shoulder_R
				{
					OFFSET 12.9945 -0.242716 -4.98039
					CHANNELS 6 Xposition Yposition Zposition Zrotation Xrotation Yrotation 
					JOINT UpperArm_R
					{
						OFFSET -5.34813 0.0 0.0
						CHANNELS 6 Xposition Yposition Zposition Zrotation Xrotation Yrotation 
						JOINT LowerArm_R
						{
							OFFSET -24.3289 0.000322201 0.0
							CHANNELS 6 Xposition Yposition Zposition Zrotation Xrotation Yrotation 
							JOINT Hand_R
							{
								OFFSET -22.2915 -0.000108084 0.0
								CHANNELS 6 Xposition Yposition Zposition Zrotation Xrotation Yrotation 
								End Site
								{
									OFFSET 0.0 0.0 0.0
								}
							}
						}
					}
				}
			}
		}
		JOINT UpperLeg_L
		{
			OFFSET -2.19248 -6.46944 0.0
			CHANNELS 6 Xposition Yposition Zposition Zrotation Xrotation Yrotation 
			JOINT LowerLeg_L
			{
				OFFSET 39.0811 0.0 -1.23785e-05
				CHANNELS 6 Xposition Yposition Zposition Zrotation Xrotation Yrotation 
				JOINT Foot_L
				{
					OFFSET 40.9854 0.0 -1.26872e-05
					CHANNELS 6 Xposition Yposition Zposition Zrotation Xrotation Yrotation 
					JOINT Toes_L
					{
						OFFSET 11.7543 0.0 0.0
						CHANNELS 6 Xposition Yposition Zposition Zrotation Xrotation Yrotation 
						End Site
						{
							OFFSET 0.0 0.0 0.0
						}
					}
				}
			}
		}
		JOINT UpperLeg_R
		{
			OFFSET -2.19251 6.46944 0.0
			CHANNELS 6 Xposition Yposition Zposition Zrotation Xrotation Yrotation 
			JOINT LowerLeg_R
			{
				OFFSET -39.0811 -0.00228153 -0.0401928
				CHANNELS 6 Xposition Yposition Zposition Zrotation Xrotation Yrotation 
				JOINT Foot_R
				{
					OFFSET -40.9854 0.0 0.0
					CHANNELS 6 Xposition Yposition Zposition Zrotation Xrotation Yrotation 
					JOINT Toes_R
					{
						OFFSET -11.7543 0.0 0.0
						CHANNELS 6 Xposition Yposition Zposition Zrotation Xrotation Yrotation 
						End Site
						{
							OFFSET 0.0 0.0 0.0
						}
					}
				}
			}
		}
	}
}
MOTION
Frames:	4
Frame Time:	0.0333333
0.000000 0.000000 0.000000 0.000000 0.000000 -0.000000 1.405750 92.892600 1.980140 88.086900 -0.814575 1.333910 15.735700 0.000005 -0.000001 99.565200 87.615300 -98.601500 8.984550 -0.406207 -0.000000 -3.068260 0.701104 1.946480 16.377300 -0.000001 -0.000001 3.545160 2.007250 0.951671 6.456720 -0.000001 -0.000000 2.845200 2.073770 1.967970 12.994200 -0.242716 4.980390 -92.327500 7.091750 -71.777800 5.348090 -0.000007 -0.000001 -74.953800 23.775500 -1.199420 24.328600 0.000019 0.000005 9.161830 25.786100 -20.342200 22.291600 -0.000001 0.000005 -6.803880 4.952450 8.314630 12.994500 -0.242716 -4.980390 88.669100 4.781710 -74.426300 -5.348130 -0.000001 -0.000004 -72.447300 28.055900 -4.059880 -24.328900 0.000322 -0.000009 1.303580 4.864280 -15.033400 -22.291500 -0.000108 -0.000004 1.026070 5.266630 0.989191 -2.192480 -6.469440 -0.000000 -174.853000 -6.823820 0.657349 39.081100 -0.000007 -0.000012 0.056760 -0.193874 16.318400 40.985400 -0.000006 -0.000013 0.723983 11.599600 -70.496000 11.754300 -0.000000 0.000003 -0.001684 0.192320 -8.774560 -2.192510 6.469440 -0.000001 175.214000 6.984650 -176.957000 -39.081100 -0.002282 -0.040193 -0.002170 0.029311 10.642000 -40.985400 0.000008 0.000006 -9.946970 8.159910 -66.075700 -11.754300 -0.000006 -0.000006 -0.012445 0.288750 -4.836870
0.000000 0.000000 0.000000 0.000000 0.000000 -0.000000 1.328660 92.917300 1.952220 88.067500 -0.806978 1.096490 15.735700 0.000005 -0.000001 99.206300 87.642100 -98.092900 8.984550 -0.406207 -0.000000 -3.116340 0.648465 2.244870 16.377300 -0.000001 -0.000001 3.330500 1.961940 1.379630 6.456720 -0.000001 -0.000000 2.396260 2.263420 2.201470 12.994200 -0.242716 4.980390 -92.304900 7.004630 -71.734200 5.348090 -0.000007 -0.000001 -74.805300 23.572900 -1.360430 24.328600 0.000019 0.000005 9.396310 26.273000 -20.498000 22.291600 -0.000001 0.000005 -7.186530 4.958390 8.191700 12.994500 -0.242716 -4.980390 88.700600 4.666130 -74.419600 -5.348130 -0.000001 -0.000004 -72.364700 27.619400 -4.150500 -24.328900 0.000322 -0.000009 1.269150 4.766470 -14.940600 -22.291500 -0.000108 -0.000004 1.078190 5.264930 1.035000 -2.192480 -6.469440 -0.000000 -174.773000 -7.011070 0.501240 39.081100 -0.000007 -0.000012 0.054669 -0.189081 16.126200 40.985400 -0.000006 -0.000013 0.667731 11.805200 -70.452200 11.754300 -0.000000 0.000003 -0.001869 0.194688 -8.678280 -2.192510 6.469440 -0.000001 175.296000 7.014350 -177.107000 -39.081100 -0.002282 -0.040193 -0.001787 0.027868 10.421300 -40.985400 0.000008 0.000006 -10.122700 8.167600 -65.910900 -11.754300 -0.000006 -0.000006 -0.012498 0.289112 -4.822010
0.000000 0.000000 0.000000 0.000000 0.000000 -0.000000 1.240590 92.934700 1.932680 88.070800 -0.745618 0.812211 15.735700 0.000005 -0.000001 97.986100 87.655400 -96.700600 8.984550 -0.406207 -0.000000 -3.126930 0.529068 2.585880 16.377300 -0.000001 -0.000001 2.953880 1.897170 1.989200 6.456720 -0.000001 -0.000000 1.812890 2.510290 2.487910 12.994200 -0.242716 4.980390 -92.311300 6.951560 -71.557700 5.348090 -0.000007 -0.000001 -74.493600 22.251100 -1.770780 24.328600 0.000019 0.000005 10.033500 27.950400 -20.680700 22.291600 -0.000001 0.000005 -8.107680 4.973350 7.880850 12.994500 -0.242716 -4.980390 88.735600 4.524250 -74.367500 -5.348130 -0.000001 -0.000004 -72.270400 27.015600 -4.319630 -24.328900 0.000322 -0.000009 1.217230 4.578390 -14.918000 -22.291500 -0.000108 -0.000004 1.308440 5.264050 1.058550 -2.192480 -6.469440 -0.000000 -174.721000 -7.160590 0.269659 39.081100 -0.000007 -0.000012 0.053214 -0.186007 15.965300 40.985400 -0.000006 -0.000013 0.613659 12.021000 -70.359400 11.754300 -0.000000 0.000003 -0.001708 0.192634 -8.761790 -2.192510 6.469440 -0.000001 175.398000 7.000640 -177.370000 -39.081100 -0.002282 -0.040193 -0.000817 0.022777 10.338500 -40.985400 0.000008 0.000006 -10.139300 8.118350 -65.828500 -11.754300 -0.000006 -0.000006 -0.012248 0.287399 -4.892210
0.000000 0.000000 0.000000 0.000000 0.000000 -0.000000 1.155560 92.965500 1.908970 88.124400 -0.747551 0.534532 15.735700 0.000005 -0.000001 98.003400 87.659500 -96.539700 8.984550 -0.406207 -0.000000 -3.135570 0.512273 2.941880 16.377300 -0.000001 -0.000001 2.627300 1.857680 2.550140 6.456720 -0.000001 -0.000000 1.009550 2.668510 3.165060 12.994200 -0.242716 4.980390 -92.305200 6.862940 -71.382900 5.348090 -0.000007 -0.000001 -73.819200 20.229800 -2.703150 24.328600 0.000019 0.000005 10.169700 29.593800 -19.963400 22.291600 -0.000001 0.000005 -9.531850 4.993900 7.445250 12.994500 -0.242716 -4.980390 88.778900 4.344490 -74.285100 -5.348130 -0.000001 -0.000004 -72.251200 26.055100 -4.356980 -24.328900 0.000322 -0.000009 1.204310 4.498530 -15.016700 -22.291500 -0.000108 -0.000004 1.460680 5.264830 1.037680 -2.192480 -6.469440 -0.000000 -174.723000 -7.360230 0.169889 39.081100 -0.000007 -0.000012 0.051125 -0.182966 15.611700 40.985400 -0.000006 -0.000013 0.532140 12.196800 -70.295000 11.754300 -0.000000 0.000003 -0.001730 0.192918 -8.750250 -2.192510 6.469440 -0.000001 175.453000 6.900070 -177.575000 -39.081100 -0.002282 -0.040193 0.000067 0.018270 10.152700 -40.985400 0.000008 0.000006 -10.141300 7.967840 -65.786300 -11.754300 -0.000006 -0.000006 -0.012657 0.290188 -4.777950
